{"title":"The Invoking 2013 HDRIP x264 AC3 TiTAN","uid":9632213,"size":689995282,"categoryP":"video","categoryS":"movies","magnet":"?xt=urn:btih:12a7ff56d102319102de3836e471029152ae9469&amp;dn=The+Invoking+2013+HDRIP+x264+AC3+TiTAN&amp;tr=udp%3A%2F%2Ftracker.openbittorrent.com%3A80&amp;tr=udp%3A%2F%2Fopen.demonii.com%3A1337&amp;tr=udp%3A%2F%2Ftracker.coppersurfer.tk%3A6969&amp;tr=udp%3A%2F%2Fexodus.desync.com%3A6969","seeders":4,"leechers":0,"uploader":"xxxlavalxxx","files":-1,"time":1392802097,"description":" &lt;a href=&quot;\nhttp://www.imdb.com/title/tt2435514/&quot; rel=&quot;nofollow&quot; target=&quot;_NEW&quot;&gt;\nhttp://www.imdb.com/title/tt2435514/&lt;/a&gt;\n\n\nAfter inheriting a house from the family she never knew, Samantha Harris (Trin Miller) and three friends head to rural Sader Ridge to inspect the property. Soon after arriving, Sam begins ... \n\nDirector: Jeremy Berg\nWriters: Jeremy Berg, Jeremy Berg (story)\nStars: Brandon Anthony, Carson Holden, D'Angelo Midili\nGenres: Horror | Thriller\nCountry: USA\nLanguage: English\n\n\n\nThe Invoking - Sader Ridge\n\nSource 1080p Itunes\n\nGeneral\n\nFormat                                   : Matroska\nFormat version                           : Version 2\nFile size                                : 658 MiB\nDuration                                 : 1h 22mn\nOverall bit rate mode                    : Variable\nOverall bit rate                         : 1 117 Kbps\nEncoded date                             : UTC 2014-02-19 13:26:47\nWriting application                      : mkvmerge v6.7.0 ('Back to the Ground') 32bit built on Jan  8 2014 15:03:17\nWriting library                          : libebml v1.3.0 + libmatroska v1.4.1\n\nVideo\nID                                       : 1\nFormat                                   : AVC\nFormat/Info                              : Advanced Video Codec\nFormat profile                           : &lt;a class=&quot;__cf_email__&quot; href=&quot;/cdn-cgi/l/email-protection&quot; data-cfemail=&quot;1d55747a755d5129332c&quot;&gt;[email&amp;#160;protected]&lt;/a&gt;&lt;script cf-hash='f9e31' type=&quot;text/javascript&quot;&gt;\n/* &lt;![CDATA[ */!function(){try{var t=&quot;currentScript&quot;in document?document.currentScript:function(){for(var t=document.getElementsByTagName(&quot;script&quot;),e=t.length;e--;)if(t[e].getAttribute(&quot;cf-hash&quot;))return t[e]}();if(t&amp;&amp;t.previousSibling){var e,r,n,i,c=t.previousSibling,a=c.getAttribute(&quot;data-cfemail&quot;);if(a){for(e=&quot;&quot;,r=parseInt(a.substr(0,2),16),n=2;a.length-n;n+=2)i=parseInt(a.substr(n,2),16)^r,e+=String.fromCharCode(i);e=document.createTextNode(e),c.parentNode.replaceChild(e,c)}}}catch(u){}}();/* ]]&gt; */&lt;/script&gt;\nFormat settings, CABAC                   : Yes\nFormat settings, ReFrames                : 3 frames\nCodec ID                                 : V_MPEG4/ISO/AVC\nDuration                                 : 1h 22mn\nBit rate mode                            : Variable\nBit rate                                 : 711 Kbps\nMaximum bit rate                         : 40.0 Mbps\nWidth                                    : 720 pixels\nHeight                                   : 400 pixels\nDisplay aspect ratio                     : 16:9\nFrame rate mode                          : Constant\nFrame rate                               : 23.976 fps\nColor space                              : YUV\nChroma subsampling                       : 4:2:0\nBit depth                                : 8 bits\nScan type                                : Progressive\nBits/(Pixel*Frame)                       : 0.103\nStream size                              : 419 MiB (64%)\nWriting library                          : x264 core 140 r2377 1ca7bb9\nDefault                                  : Yes\nForced                                   : No\nColor primaries                          : BT.709\nTransfer characteristics                 : BT.709\nMatrix coefficients                      : BT.709\n\nAudio\nID                                       : 2\nFormat                                   : AC-3\nFormat/Info                              : Audio Coding 3\nMode extension                           : CM (complete main)\nFormat settings, Endianness              : Big\nCodec ID                                 : A_AC3\nDuration                                 : 1h 22mn\nBit rate mode                            : Constant\nBit rate                                 : 384 Kbps\nChannel(s)                               : 6 channels\nChannel positions                        : Front: L C R, Side: L R, LFE\nSampling rate                            : 48.0 KHz\nBit depth                                : 16 bits\nCompression mode                         : Lossy\nStream size                              : 226 MiB (34%)\nLanguage                                 : English\nDefault                                  : Yes\nForced                                   : No\n\n\nscreens\n &lt;a href=&quot;\nhttp://i.imgur.com/dpgVl6L.png&quot; rel=&quot;nofollow&quot; target=&quot;_NEW&quot;&gt;\nhttp://i.imgur.com/dpgVl6L.png&lt;/a&gt; &lt;a href=&quot;\nhttp://i.imgur.com/AxXEZrd.png&quot; rel=&quot;nofollow&quot; target=&quot;_NEW&quot;&gt;\nhttp://i.imgur.com/AxXEZrd.png&lt;/a&gt; &lt;a href=&quot;\nhttp://i.imgur.com/FRjaHNh.png&quot; rel=&quot;nofollow&quot; target=&quot;_NEW&quot;&gt;\nhttp://i.imgur.com/FRjaHNh.png&lt;/a&gt; &lt;a href=&quot;\nhttp://i.imgur.com/1uQHwOP.png&quot; rel=&quot;nofollow&quot; target=&quot;_NEW&quot;&gt;\nhttp://i.imgur.com/1uQHwOP.png&lt;/a&gt;","torrent":{"xt":"urn:btih:12a7ff56d102319102de3836e471029152ae9469","amp;dn":"The+Invoking+2013+HDRIP+x264+AC3+TiTAN","amp;tr":["udp%3A%2F%2Ftracker.openbittorrent.com%3A80","udp%3A%2F%2Fopen.demonii.com%3A1337","udp%3A%2F%2Ftracker.coppersurfer.tk%3A6969","udp%3A%2F%2Fexodus.desync.com%3A6969"],"infoHash":"12a7ff56d102319102de3836e471029152ae9469","infoHashBuffer":{"type":"Buffer","data":[18,167,255,86,209,2,49,145,2,222,56,54,228,113,2,145,82,174,148,105]},"announce":[],"urlList":[]}}